<?xml version="1.0" standalone="no"?>
<!DOCTYPE svg PUBLIC "-//W3C//DTD SVG 20010904//EN"
 "http://www.w3.org/TR/2001/REC-SVG-20010904/DTD/svg10.dtd">
<svg version="1.0" xmlns="http://www.w3.org/2000/svg"
 width="600.000000pt" height="600.000000pt" viewBox="0 0 600.000000 600.000000"
 preserveAspectRatio="xMidYMid meet">
<metadata>
Created by potrace 1.11, written by Peter Selinger 2001-2013
</metadata>
<g transform="translate(0.000000,600.000000) scale(0.100000,-0.100000)"
fill="#000000" stroke="none">
<path d="M1573 4603 c-57 -19 -132 -89 -163 -149 l-25 -49 0 -1465 0 -1465 28
-57 c53 -107 154 -166 268 -155 71 6 149 47 191 99 60 76 58 37 58 1147 0 855
2 1013 14 1001 7 -8 183 -285 391 -615 208 -330 396 -619 418 -642 118 -124
272 -131 403 -19 25 22 180 250 434 638 l395 604 5 -996 c4 -762 9 -1004 18
-1032 35 -102 144 -178 267 -186 94 -5 171 23 235 87 87 87 80 -43 80 1591 0
1071 -3 1456 -12 1481 -19 58 -64 114 -122 154 -51 35 -63 39 -136 43 -75 4
-85 2 -144 -27 -47 -23 -74 -45 -103 -84 -22 -28 -273 -401 -558 -827 -285
-426 -521 -779 -525 -783 -4 -4 -247 362 -541 813 -571 877 -557 858 -663 893
-60 21 -156 21 -213 0z"/>
</g>
</svg>
